<svg id="Layer_1" data-name="Layer 1" xmlns="http://www.w3.org/2000/svg" viewBox="0 0 497.39 82.34"><defs><style>.cls-1{fill:#2a1000;}</style></defs><title>logo</title><path class="cls-1" d="M243.56,419.37a11.38,11.38,0,0,1,3-19.22l38.11-15.79-4.28-3.5-35.52,14.72a16.19,16.19,0,0,0-4.23,27.35L260,439.26l4.73-2.06Z" transform="translate(-49.09 -380.85)"/><path class="cls-1" d="M247.9,415.67a6.63,6.63,0,0,1,1.73-11.2l39.55-16.39-3.66-3-38.61,16a10.38,10.38,0,0,0-2.71,17.53l21.56,18.16,4.74-2.06Z" transform="translate(-49.09 -380.85)"/><path class="cls-1" d="M251.23,410.25l43.18-17.9-4.35-3.56-40,16.6a5.63,5.63,0,0,0-1.47,9.51l23,19.35,4.87-2.12-25.18-21.2a.5.5,0,0,1-.19-.36A.37.37,0,0,1,251.23,410.25Z" transform="translate(-49.09 -380.85)"/><path class="cls-1" d="M293.52,424.68a11.38,11.38,0,0,1-3,19.22l-38.11,15.79,4.28,3.5,35.52-14.72a16.19,16.19,0,0,0,4.23-27.35l-19.4-16.34-4.73,2.06Z" transform="translate(-49.09 -380.85)"/><path class="cls-1" d="M289.18,428.38a6.63,6.63,0,0,1-1.73,11.2L247.9,456l3.66,3,38.61-16a10.38,10.38,0,0,0,2.71-17.53l-21.56-18.16-4.74,2.06Z" transform="translate(-49.09 -380.85)"/><path class="cls-1" d="M285.85,433.8l-43.18,17.9,4.35,3.56,40-16.6a5.63,5.63,0,0,0,1.47-9.51l-23-19.35-4.87,2.12,25.18,21.2a.5.5,0,0,1,.19.36A.37.37,0,0,1,285.85,433.8Z" transform="translate(-49.09 -380.85)"/><path class="cls-1" d="M64.7,401.72l6.5,19.67H58.14Zm-2.76-4.42L49.09,435.43h4.42l3.38-10.25H72.45l3.38,10.25h4.68L67.66,397.3Z" transform="translate(-49.09 -380.85)"/><path class="cls-1" d="M100.07,435.43l-.73-2.91a11,11,0,0,1-8,3.49c-4.74,0-7.91-2.71-7.91-7.23,0-4.32,1.77-6.4,9.21-8.84l4.11-1.35c2.34-.78,2.6-.94,2.6-2.65,0-2.86-1.2-4.63-5.36-4.63-3.23,0-5.93,1.09-9.16,3.49v-4.27a17.82,17.82,0,0,1,9.63-2.7c5.2,0,8.95,1.56,8.95,9.78v17.85Zm-.73-14.52c-1.14.57-2.24,1-3.54,1.51l-3.69,1.46c-4,1.56-4.42,3.07-4.42,5s1.4,3.64,4.32,3.64c3.49,0,5.2-1.51,7.34-3.43Z" transform="translate(-49.09 -380.85)"/><polygon class="cls-1" points="61.6 54.58 61.6 17.9 65.66 16.45 65.66 54.58 61.6 54.58"/><path class="cls-1" d="M126.4,435.43h-3.33V397.3h4.06v13.79a10.41,10.41,0,0,1,7.65-3.28c8,0,10.93,7.91,10.93,14.2,0,7.08-3.43,14-11.08,14-4,0-5.88-1.82-7.49-3.49Zm.73-6.56c1.72,1.87,3.8,3.64,7,3.64,5.31,0,7.28-5.36,7.28-10.67,0-5.72-2.18-10.56-7.18-10.56-3.12,0-5.2,1.82-7.13,3.75Z" transform="translate(-49.09 -380.85)"/><path class="cls-1" d="M162.4,436c-7.13,0-11.76-6-11.76-14.15s4.73-14,11.81-14,11.76,5.88,11.76,14.1c0,8.43-4.89,14.1-11.81,14.1m.05-24.71c-5.62,0-7.54,5.78-7.54,10.61,0,4.42,1.77,10.62,7.49,10.62,5.41,0,7.54-5.36,7.54-10.82,0-5.72-2.81-10.41-7.49-10.41" transform="translate(-49.09 -380.85)"/><path class="cls-1" d="M184.2,435.43h-4.06V408.38h4.06v5.1c1.51-2.55,4.27-5.67,8.38-5.67a5.23,5.23,0,0,1,1.56.16v4.11a5,5,0,0,0-1.82-.26c-3.8,0-8.12,3.75-8.12,10Z" transform="translate(-49.09 -380.85)"/><path class="cls-1" d="M219.32,434.55c0,4.68-2.45,11-11.34,11a20.81,20.81,0,0,1-9.1-2.24v-4.42a16.39,16.39,0,0,0,9.26,3.17c5.36,0,7.13-4.27,7.13-7.39v-2.45a9.74,9.74,0,0,1-7.6,3.23c-7.65,0-11-7.18-11-13.84,0-7.44,3.85-13.79,11-13.79a9.48,9.48,0,0,1,7.6,3.49l.73-2.91h3.33Zm-4.06-19.67c-1.2-1.2-3.49-3.59-7-3.59-5.36,0-7.28,5.72-7.28,10.46,0,4.53,1.77,10.2,7.23,10.2,3.17,0,5.15-1.72,7.08-3.59Z" transform="translate(-49.09 -380.85)"/><path class="cls-1" d="M315.55,427.58c2.29,1.77,6,4.68,11.55,4.68,6.66,0,8.12-4.27,8.12-6.71,0-2.6-1.51-5.1-8.79-7.91-8.43-3.23-10.82-6.09-10.82-11,0-6.09,4.58-10.09,11.86-10.09a16.91,16.91,0,0,1,10.09,3.17v5a14.66,14.66,0,0,0-10.14-4.32c-5.26,0-7.54,2.86-7.54,5.77,0,3.33,2.45,4.94,8.38,7.39,6.76,2.81,11.24,5.15,11.24,11.6,0,7.6-5.67,10.92-12.23,10.92a21,21,0,0,1-11.71-3.54Z" transform="translate(-49.09 -380.85)"/><path class="cls-1" d="M347.13,411.76h-4.58v-3.38h4.58v-8.17l4.06-1.46v9.62h5.93v3.38h-5.93V428.2c0,3.59.94,4.32,3.07,4.32a7.78,7.78,0,0,0,3.07-.62v3.75a13.22,13.22,0,0,1-3.48.37c-5.93,0-6.71-2.6-6.71-7.08Z" transform="translate(-49.09 -380.85)"/><path class="cls-1" d="M372.41,436c-7.13,0-11.76-6-11.76-14.15s4.73-14,11.81-14,11.76,5.88,11.76,14.1c0,8.43-4.89,14.1-11.81,14.1m.05-24.71c-5.62,0-7.54,5.78-7.54,10.61,0,4.42,1.77,10.62,7.49,10.62,5.41,0,7.54-5.36,7.54-10.82,0-5.72-2.81-10.41-7.49-10.41" transform="translate(-49.09 -380.85)"/><path class="cls-1" d="M394.52,435.43h-4.06V408.38h4.06v5.1c1.51-2.55,4.27-5.67,8.38-5.67a5.23,5.23,0,0,1,1.56.16v4.11a5,5,0,0,0-1.82-.26c-3.8,0-8.12,3.75-8.12,10Z" transform="translate(-49.09 -380.85)"/><path class="cls-1" d="M426.88,414.88c-1.92-1.61-4.21-3.59-7.91-3.59-4.89,0-8,4.42-8,10.72,0,4.47,1.87,10.51,8.17,10.51,3.23,0,5-1.14,8.12-3.49v4.37A13.73,13.73,0,0,1,419,436c-9.47,0-12.28-8.17-12.28-14,0-7.23,3.8-14.15,12.23-14.15a13.13,13.13,0,0,1,8,2.65Z" transform="translate(-49.09 -380.85)"/><path class="cls-1" d="M436.24,422.43c.16,4.84,2.08,10.09,8.33,10.09,3.69,0,5.83-1.51,8.53-3.38v4.21a14.88,14.88,0,0,1-8.59,2.65c-10.4,0-12.54-8.58-12.54-14,0-8.64,4.58-14.15,11.65-14.15,5.83,0,10.72,3.9,10.87,14.62ZM450.18,419c-.36-3.33-2.08-7.75-6.61-7.75s-6.87,4.42-7.23,7.75Z" transform="translate(-49.09 -380.85)"/><path class="cls-1" d="M477.13,435.43V417.48c0-3.49-.78-5.93-3.85-5.93-2.91,0-5,1.2-8.9,3.7v20.19h-4.06V408.38h4.06v3.43c3.69-2.65,6.45-4,9.68-4,4.58,0,7.13,3.23,7.13,9v18.62Z" transform="translate(-49.09 -380.85)"/><path class="cls-1" d="M490.29,411.76h-4.58v-3.38h4.58v-8.17l4.06-1.46v9.62h5.93v3.38h-5.93V428.2c0,3.59.94,4.32,3.07,4.32a7.78,7.78,0,0,0,3.07-.62v3.75A13.24,13.24,0,0,1,497,436c-5.93,0-6.71-2.6-6.71-7.08Z" transform="translate(-49.09 -380.85)"/><path class="cls-1" d="M508.08,422.43c.16,4.84,2.08,10.09,8.33,10.09,3.69,0,5.82-1.51,8.53-3.38v4.21a14.87,14.87,0,0,1-8.59,2.65c-10.4,0-12.54-8.58-12.54-14,0-8.64,4.58-14.15,11.65-14.15,5.83,0,10.72,3.9,10.87,14.62ZM522,419c-.36-3.33-2.08-7.75-6.61-7.75s-6.87,4.42-7.23,7.75Z" transform="translate(-49.09 -380.85)"/><path class="cls-1" d="M536.54,435.43h-4.06V408.38h4.06v5.1c1.51-2.55,4.27-5.67,8.37-5.67a5.24,5.24,0,0,1,1.56.16v4.11a5,5,0,0,0-1.82-.26c-3.8,0-8.12,3.75-8.12,10Z" transform="translate(-49.09 -380.85)"/></svg>